<svg width="96" height="96" viewBox="0 0 96 96" xmlns="http://www.w3.org/2000/svg" role="img" aria-label="SketchUp icon">
  <defs>
    <linearGradient id="g" x1="10%" y1="0%" x2="90%" y2="100%">
      <stop offset="0%" stop-color="#e53935"/>
      <stop offset="100%" stop-color="#ef5350"/>
    </linearGradient>
  </defs>
  <rect x="8" y="8" width="80" height="80" rx="18" fill="url(#g)" />
  <path d="M30 34c9 0 15-4 23-4 6 0 10 2 13 6l-6 6c-2-3-4-4-7-4-8 0-14 4-23 4-6 0-10-2-13-6l6-6c2 3 4 4 7 4zm0 16c9 0 15-4 23-4 6 0 10 2 13 6l-6 6c-2-3-4-4-7-4-8 0-14 4-23 4-6 0-10-2-13-6l6-6c2 3 4 4 7 4zm0 16c9 0 15-4 23-4 6 0 10 2 13 6l-6 6c-2-3-4-4-7-4-8 0-14 4-23 4-6 0-10-2-13-6l6-6c2 3 4 4 7 4z" fill="#fff" opacity="0.9"/>
</svg>
